<svg width="130" height="100" viewBox="0 0 130 100" fill="none" xmlns="http://www.w3.org/2000/svg">
<path d="M65.5836 34.23C73.5749 34.3069 77.4701 28.9891 75.7599 23.4042C74.0496 17.8193 66.8649 12.395 58.8736 12.3181C50.8822 12.2412 46.987 17.559 48.6973 23.1438C50.4075 28.7287 57.5922 34.1531 65.5836 34.23Z" stroke="#FFC300" stroke-width="8.67243"/>
<path d="M81.6919 30.7262C79.3184 22.6199 70.4666 19.0313 61.5421 23.5398C52.6176 28.0483 47.8777 38.5032 50.2512 46.6094C52.6247 54.7156 61.4764 58.3043 70.401 53.7958C79.3255 49.2873 84.0654 38.8324 81.6919 30.7262Z" stroke="#00D4E6" stroke-width="6"/>
<path d="M76.3203 38.5729C82.0269 30.1399 78.0457 20.8662 66.5776 18.1774C55.1095 15.4886 41.3862 20.6115 35.6797 29.0445C29.9731 37.4775 33.9543 46.7512 45.4224 49.44C56.8905 52.1288 70.6138 47.0059 76.3203 38.5729Z" stroke="#FF3E80" stroke-width="6"/>
<path d="M78.3683 28.9003C78.429 24.0737 74.0399 20.5823 67.7613 22.0544C61.4828 23.5264 56.9798 29.1026 56.9191 33.9292C56.8585 38.7558 61.2475 42.2472 67.5261 40.7751C73.8046 39.3031 78.3076 33.7269 78.3683 28.9003Z" stroke="#5B68DC" stroke-width="6"/>
<path d="M9.06055 86.3799H11.6885C11.6357 87.2412 11.3984 88.0059 10.9766 88.6738C10.5605 89.3418 9.97754 89.8633 9.22754 90.2383C8.4834 90.6133 7.58691 90.8008 6.53809 90.8008C5.71777 90.8008 4.98242 90.6602 4.33203 90.3789C3.68164 90.0918 3.125 89.6816 2.66211 89.1484C2.20508 88.6152 1.85645 87.9707 1.61621 87.2148C1.37598 86.459 1.25586 85.6123 1.25586 84.6748V83.7871C1.25586 82.8496 1.37891 82.0029 1.625 81.2471C1.87695 80.4854 2.23438 79.8379 2.69727 79.3047C3.16602 78.7715 3.72559 78.3613 4.37598 78.0742C5.02637 77.7871 5.75293 77.6436 6.55566 77.6436C7.62207 77.6436 8.52148 77.8369 9.25391 78.2236C9.99219 78.6104 10.5635 79.1436 10.9678 79.8232C11.3779 80.5029 11.624 81.2764 11.7061 82.1436H9.06934C9.04004 81.6279 8.9375 81.1914 8.76172 80.834C8.58594 80.4707 8.31934 80.1982 7.96191 80.0166C7.61035 79.8291 7.1416 79.7354 6.55566 79.7354C6.11621 79.7354 5.73242 79.8174 5.4043 79.9814C5.07617 80.1455 4.80078 80.3945 4.57812 80.7285C4.35547 81.0625 4.18848 81.4844 4.07715 81.9941C3.97168 82.498 3.91895 83.0898 3.91895 83.7695V84.6748C3.91895 85.3369 3.96875 85.9199 4.06836 86.4238C4.16797 86.9219 4.32031 87.3438 4.52539 87.6895C4.73633 88.0293 5.00586 88.2871 5.33398 88.4629C5.66797 88.6328 6.06934 88.7178 6.53809 88.7178C7.08887 88.7178 7.54297 88.6299 7.90039 88.4541C8.25781 88.2783 8.53027 88.0176 8.71777 87.6719C8.91113 87.3262 9.02539 86.8955 9.06055 86.3799ZM12.8574 85.9668V85.7822C12.8574 85.085 12.957 84.4434 13.1562 83.8574C13.3555 83.2656 13.6455 82.7529 14.0264 82.3193C14.4072 81.8857 14.876 81.5488 15.4326 81.3086C15.9893 81.0625 16.6279 80.9395 17.3486 80.9395C18.0693 80.9395 18.7109 81.0625 19.2734 81.3086C19.8359 81.5488 20.3076 81.8857 20.6885 82.3193C21.0752 82.7529 21.3682 83.2656 21.5674 83.8574C21.7666 84.4434 21.8662 85.085 21.8662 85.7822V85.9668C21.8662 86.6582 21.7666 87.2998 21.5674 87.8916C21.3682 88.4775 21.0752 88.9902 20.6885 89.4297C20.3076 89.8633 19.8389 90.2002 19.2822 90.4404C18.7256 90.6807 18.0869 90.8008 17.3662 90.8008C16.6455 90.8008 16.0039 90.6807 15.4414 90.4404C14.8848 90.2002 14.4131 89.8633 14.0264 89.4297C13.6455 88.9902 13.3555 88.4775 13.1562 87.8916C12.957 87.2998 12.8574 86.6582 12.8574 85.9668ZM15.3887 85.7822V85.9668C15.3887 86.3652 15.4238 86.7373 15.4941 87.083C15.5645 87.4287 15.6758 87.7334 15.8281 87.9971C15.9863 88.2549 16.1914 88.457 16.4434 88.6035C16.6953 88.75 17.0029 88.8232 17.3662 88.8232C17.7178 88.8232 18.0195 88.75 18.2715 88.6035C18.5234 88.457 18.7256 88.2549 18.8779 87.9971C19.0303 87.7334 19.1416 87.4287 19.2119 87.083C19.2881 86.7373 19.3262 86.3652 19.3262 85.9668V85.7822C19.3262 85.3955 19.2881 85.0322 19.2119 84.6924C19.1416 84.3467 19.0273 84.042 18.8691 83.7783C18.7168 83.5088 18.5146 83.2979 18.2627 83.1455C18.0107 82.9932 17.7061 82.917 17.3486 82.917C16.9912 82.917 16.6865 82.9932 16.4346 83.1455C16.1885 83.2979 15.9863 83.5088 15.8281 83.7783C15.6758 84.042 15.5645 84.3467 15.4941 84.6924C15.4238 85.0322 15.3887 85.3955 15.3887 85.7822ZM25.9531 83.084V90.625H23.4131V81.1152H25.7949L25.9531 83.084ZM25.6016 85.5361H24.8984C24.8984 84.874 24.9775 84.2646 25.1357 83.708C25.2998 83.1455 25.5371 82.6592 25.8477 82.249C26.1641 81.833 26.5537 81.5107 27.0166 81.2822C27.4795 81.0537 28.0156 80.9395 28.625 80.9395C29.0469 80.9395 29.4336 81.0039 29.7852 81.1328C30.1367 81.2559 30.4385 81.4521 30.6904 81.7217C30.9482 81.9854 31.1475 82.3311 31.2881 82.7588C31.4287 83.1807 31.499 83.6875 31.499 84.2793V90.625H28.9678V84.5605C28.9678 84.127 28.9092 83.793 28.792 83.5586C28.6748 83.3242 28.5078 83.1602 28.291 83.0664C28.0801 82.9727 27.8252 82.9258 27.5264 82.9258C27.1982 82.9258 26.9111 82.9932 26.665 83.1279C26.4248 83.2627 26.2256 83.4502 26.0674 83.6904C25.9092 83.9248 25.792 84.2002 25.7158 84.5166C25.6396 84.833 25.6016 85.1729 25.6016 85.5361ZM31.2617 85.2461L30.3564 85.3604C30.3564 84.7393 30.4326 84.1621 30.585 83.6289C30.7432 83.0957 30.9746 82.627 31.2793 82.2227C31.5898 81.8184 31.9736 81.5049 32.4307 81.2822C32.8877 81.0537 33.415 80.9395 34.0127 80.9395C34.4697 80.9395 34.8857 81.0068 35.2607 81.1416C35.6357 81.2705 35.9551 81.4785 36.2188 81.7656C36.4883 82.0469 36.6934 82.416 36.834 82.873C36.9805 83.3301 37.0537 83.8896 37.0537 84.5518V90.625H34.5137V84.5518C34.5137 84.1123 34.4551 83.7783 34.3379 83.5498C34.2266 83.3154 34.0625 83.1543 33.8457 83.0664C33.6348 82.9727 33.3828 82.9258 33.0898 82.9258C32.7852 82.9258 32.5186 82.9873 32.29 83.1104C32.0615 83.2275 31.8711 83.3916 31.7188 83.6025C31.5664 83.8135 31.4521 84.0596 31.376 84.3408C31.2998 84.6162 31.2617 84.918 31.2617 85.2461ZM41.5449 82.9434V94.2812H39.0137V81.1152H41.3604L41.5449 82.9434ZM47.5654 85.7646V85.9492C47.5654 86.6406 47.4834 87.2822 47.3193 87.874C47.1611 88.4658 46.9268 88.9814 46.6162 89.4209C46.3057 89.8545 45.9189 90.1943 45.4561 90.4404C44.999 90.6807 44.4717 90.8008 43.874 90.8008C43.2939 90.8008 42.79 90.6836 42.3623 90.4492C41.9346 90.2148 41.5742 89.8867 41.2812 89.4648C40.9941 89.0371 40.7627 88.542 40.5869 87.9795C40.4111 87.417 40.2764 86.8135 40.1826 86.1689V85.6855C40.2764 84.9941 40.4111 84.3613 40.5869 83.7871C40.7627 83.207 40.9941 82.7061 41.2812 82.2842C41.5742 81.8564 41.9316 81.5254 42.3535 81.291C42.7812 81.0566 43.2822 80.9395 43.8564 80.9395C44.46 80.9395 44.9902 81.0537 45.4473 81.2822C45.9102 81.5107 46.2969 81.8389 46.6074 82.2666C46.9238 82.6943 47.1611 83.2041 47.3193 83.7959C47.4834 84.3877 47.5654 85.0439 47.5654 85.7646ZM45.0254 85.9492V85.7646C45.0254 85.3604 44.9902 84.9883 44.9199 84.6484C44.8555 84.3027 44.75 84.001 44.6035 83.7432C44.4629 83.4854 44.2754 83.2861 44.041 83.1455C43.8125 82.999 43.5342 82.9258 43.2061 82.9258C42.8604 82.9258 42.5645 82.9814 42.3184 83.0928C42.0781 83.2041 41.8818 83.3652 41.7295 83.5762C41.5771 83.7871 41.4629 84.0391 41.3867 84.332C41.3105 84.625 41.2637 84.9561 41.2461 85.3252V86.5469C41.2754 86.9805 41.3574 87.3701 41.4922 87.7158C41.627 88.0557 41.835 88.3252 42.1162 88.5244C42.3975 88.7236 42.7666 88.8232 43.2236 88.8232C43.5576 88.8232 43.8389 88.75 44.0674 88.6035C44.2959 88.4512 44.4805 88.2432 44.6211 87.9795C44.7676 87.7158 44.8701 87.4111 44.9287 87.0654C44.9932 86.7197 45.0254 86.3477 45.0254 85.9492ZM54.2715 88.4805V84.2441C54.2715 83.9395 54.2217 83.6787 54.1221 83.4619C54.0225 83.2393 53.8672 83.0664 53.6562 82.9434C53.4512 82.8203 53.1846 82.7588 52.8564 82.7588C52.5752 82.7588 52.332 82.8086 52.127 82.9082C51.9219 83.002 51.7637 83.1396 51.6523 83.3213C51.541 83.4971 51.4854 83.7051 51.4854 83.9453H48.9541C48.9541 83.541 49.0479 83.1572 49.2354 82.7939C49.4229 82.4307 49.6953 82.1113 50.0527 81.8359C50.4102 81.5547 50.835 81.335 51.3271 81.1768C51.8252 81.0186 52.3818 80.9395 52.9971 80.9395C53.7354 80.9395 54.3916 81.0625 54.9658 81.3086C55.54 81.5547 55.9912 81.9238 56.3193 82.416C56.6533 82.9082 56.8203 83.5234 56.8203 84.2617V88.3311C56.8203 88.8525 56.8525 89.2803 56.917 89.6143C56.9814 89.9424 57.0752 90.2295 57.1982 90.4756V90.625H54.6406C54.5176 90.3672 54.4238 90.0449 54.3594 89.6582C54.3008 89.2656 54.2715 88.873 54.2715 88.4805ZM54.6055 84.833L54.623 86.2656H53.208C52.874 86.2656 52.584 86.3037 52.3379 86.3799C52.0918 86.4561 51.8896 86.5645 51.7314 86.7051C51.5732 86.8398 51.4561 86.998 51.3799 87.1797C51.3096 87.3613 51.2744 87.5605 51.2744 87.7773C51.2744 87.9941 51.3242 88.1904 51.4238 88.3662C51.5234 88.5361 51.667 88.6709 51.8545 88.7705C52.042 88.8643 52.2617 88.9111 52.5137 88.9111C52.8945 88.9111 53.2256 88.835 53.5068 88.6826C53.7881 88.5303 54.0049 88.3428 54.1572 88.1201C54.3154 87.8975 54.3975 87.6865 54.4033 87.4873L55.0713 88.5596C54.9775 88.7998 54.8486 89.0488 54.6846 89.3066C54.5264 89.5645 54.3242 89.8076 54.0781 90.0361C53.832 90.2588 53.5361 90.4434 53.1904 90.5898C52.8447 90.7305 52.4346 90.8008 51.96 90.8008C51.3564 90.8008 50.8086 90.6807 50.3164 90.4404C49.8301 90.1943 49.4434 89.8574 49.1562 89.4297C48.875 88.9961 48.7344 88.5039 48.7344 87.9531C48.7344 87.4551 48.8281 87.0127 49.0156 86.626C49.2031 86.2393 49.4785 85.9141 49.8418 85.6504C50.2109 85.3809 50.6709 85.1787 51.2217 85.0439C51.7725 84.9033 52.4111 84.833 53.1377 84.833H54.6055ZM61.25 83.1455V90.625H58.7188V81.1152H61.0918L61.25 83.1455ZM60.8809 85.5361H60.1953C60.1953 84.833 60.2861 84.2002 60.4678 83.6377C60.6494 83.0693 60.9043 82.5859 61.2324 82.1875C61.5605 81.7832 61.9502 81.4756 62.4014 81.2646C62.8584 81.0479 63.3682 80.9395 63.9307 80.9395C64.376 80.9395 64.7832 81.0039 65.1523 81.1328C65.5215 81.2617 65.8379 81.4668 66.1016 81.748C66.3711 82.0293 66.5762 82.4014 66.7168 82.8643C66.8633 83.3271 66.9365 83.8926 66.9365 84.5605V90.625H64.3877V84.5518C64.3877 84.1299 64.3291 83.8018 64.2119 83.5674C64.0947 83.333 63.9219 83.1689 63.6934 83.0752C63.4707 82.9756 63.1953 82.9258 62.8672 82.9258C62.5273 82.9258 62.2314 82.9932 61.9795 83.1279C61.7334 83.2627 61.5283 83.4502 61.3643 83.6904C61.2061 83.9248 61.0859 84.2002 61.0039 84.5166C60.9219 84.833 60.8809 85.1729 60.8809 85.5361ZM71.6826 89.5527L74.2051 81.1152H76.9209L73.0977 92.0576C73.0156 92.2979 72.9043 92.5557 72.7637 92.8311C72.6289 93.1064 72.4443 93.3672 72.21 93.6133C71.9814 93.8652 71.6914 94.0703 71.3398 94.2285C70.9941 94.3867 70.5693 94.4658 70.0654 94.4658C69.8252 94.4658 69.6289 94.4512 69.4766 94.4219C69.3242 94.3926 69.1426 94.3516 68.9316 94.2988V92.4443C68.9961 92.4443 69.0635 92.4443 69.1338 92.4443C69.2041 92.4502 69.2715 92.4531 69.3359 92.4531C69.6699 92.4531 69.9424 92.415 70.1533 92.3389C70.3643 92.2627 70.5342 92.1455 70.6631 91.9873C70.792 91.835 70.8945 91.6357 70.9707 91.3896L71.6826 89.5527ZM70.6279 81.1152L72.6934 88.0059L73.0537 90.6865L71.3311 90.8711L67.9121 81.1152H70.6279ZM92.9873 77.8281V90.625H90.3506L85.209 82.0469V90.625H82.5723V77.8281H85.209L90.3594 86.415V77.8281H92.9873ZM100.256 88.4805V84.2441C100.256 83.9395 100.206 83.6787 100.106 83.4619C100.007 83.2393 99.8516 83.0664 99.6406 82.9434C99.4355 82.8203 99.1689 82.7588 98.8408 82.7588C98.5596 82.7588 98.3164 82.8086 98.1113 82.9082C97.9062 83.002 97.748 83.1396 97.6367 83.3213C97.5254 83.4971 97.4697 83.7051 97.4697 83.9453H94.9385C94.9385 83.541 95.0322 83.1572 95.2197 82.7939C95.4072 82.4307 95.6797 82.1113 96.0371 81.8359C96.3945 81.5547 96.8193 81.335 97.3115 81.1768C97.8096 81.0186 98.3662 80.9395 98.9814 80.9395C99.7197 80.9395 100.376 81.0625 100.95 81.3086C101.524 81.5547 101.976 81.9238 102.304 82.416C102.638 82.9082 102.805 83.5234 102.805 84.2617V88.3311C102.805 88.8525 102.837 89.2803 102.901 89.6143C102.966 89.9424 103.06 90.2295 103.183 90.4756V90.625H100.625C100.502 90.3672 100.408 90.0449 100.344 89.6582C100.285 89.2656 100.256 88.873 100.256 88.4805ZM100.59 84.833L100.607 86.2656H99.1924C98.8584 86.2656 98.5684 86.3037 98.3223 86.3799C98.0762 86.4561 97.874 86.5645 97.7158 86.7051C97.5576 86.8398 97.4404 86.998 97.3643 87.1797C97.2939 87.3613 97.2588 87.5605 97.2588 87.7773C97.2588 87.9941 97.3086 88.1904 97.4082 88.3662C97.5078 88.5361 97.6514 88.6709 97.8389 88.7705C98.0264 88.8643 98.2461 88.9111 98.498 88.9111C98.8789 88.9111 99.21 88.835 99.4912 88.6826C99.7725 88.5303 99.9893 88.3428 100.142 88.1201C100.3 87.8975 100.382 87.6865 100.388 87.4873L101.056 88.5596C100.962 88.7998 100.833 89.0488 100.669 89.3066C100.511 89.5645 100.309 89.8076 100.062 90.0361C99.8164 90.2588 99.5205 90.4434 99.1748 90.5898C98.8291 90.7305 98.4189 90.8008 97.9443 90.8008C97.3408 90.8008 96.793 90.6807 96.3008 90.4404C95.8145 90.1943 95.4277 89.8574 95.1406 89.4297C94.8594 88.9961 94.7188 88.5039 94.7188 87.9531C94.7188 87.4551 94.8125 87.0127 95 86.626C95.1875 86.2393 95.4629 85.9141 95.8262 85.6504C96.1953 85.3809 96.6553 85.1787 97.2061 85.0439C97.7568 84.9033 98.3955 84.833 99.1221 84.833H100.59ZM107.287 83.084V90.625H104.747V81.1152H107.129L107.287 83.084ZM106.936 85.5361H106.232C106.232 84.874 106.312 84.2646 106.47 83.708C106.634 83.1455 106.871 82.6592 107.182 82.249C107.498 81.833 107.888 81.5107 108.351 81.2822C108.813 81.0537 109.35 80.9395 109.959 80.9395C110.381 80.9395 110.768 81.0039 111.119 81.1328C111.471 81.2559 111.772 81.4521 112.024 81.7217C112.282 81.9854 112.481 82.3311 112.622 82.7588C112.763 83.1807 112.833 83.6875 112.833 84.2793V90.625H110.302V84.5605C110.302 84.127 110.243 83.793 110.126 83.5586C110.009 83.3242 109.842 83.1602 109.625 83.0664C109.414 82.9727 109.159 82.9258 108.86 82.9258C108.532 82.9258 108.245 82.9932 107.999 83.1279C107.759 83.2627 107.56 83.4502 107.401 83.6904C107.243 83.9248 107.126 84.2002 107.05 84.5166C106.974 84.833 106.936 85.1729 106.936 85.5361ZM112.596 85.2461L111.69 85.3604C111.69 84.7393 111.767 84.1621 111.919 83.6289C112.077 83.0957 112.309 82.627 112.613 82.2227C112.924 81.8184 113.308 81.5049 113.765 81.2822C114.222 81.0537 114.749 80.9395 115.347 80.9395C115.804 80.9395 116.22 81.0068 116.595 81.1416C116.97 81.2705 117.289 81.4785 117.553 81.7656C117.822 82.0469 118.027 82.416 118.168 82.873C118.314 83.3301 118.388 83.8896 118.388 84.5518V90.625H115.848V84.5518C115.848 84.1123 115.789 83.7783 115.672 83.5498C115.561 83.3154 115.396 83.1543 115.18 83.0664C114.969 82.9727 114.717 82.9258 114.424 82.9258C114.119 82.9258 113.853 82.9873 113.624 83.1104C113.396 83.2275 113.205 83.3916 113.053 83.6025C112.9 83.8135 112.786 84.0596 112.71 84.3408C112.634 84.6162 112.596 84.918 112.596 85.2461ZM124.725 90.8008C123.986 90.8008 123.324 90.6836 122.738 90.4492C122.152 90.209 121.654 89.8779 121.244 89.4561C120.84 89.0342 120.529 88.5449 120.312 87.9883C120.096 87.4258 119.987 86.8281 119.987 86.1953V85.8438C119.987 85.123 120.09 84.4639 120.295 83.8662C120.5 83.2686 120.793 82.75 121.174 82.3105C121.561 81.8711 122.029 81.5342 122.58 81.2998C123.131 81.0596 123.752 80.9395 124.443 80.9395C125.117 80.9395 125.715 81.0508 126.236 81.2734C126.758 81.4961 127.194 81.8125 127.546 82.2227C127.903 82.6328 128.173 83.125 128.354 83.6992C128.536 84.2676 128.627 84.9004 128.627 85.5977V86.6523H121.068V84.9648H126.14V84.7715C126.14 84.4199 126.075 84.1064 125.946 83.8311C125.823 83.5498 125.636 83.3271 125.384 83.1631C125.132 82.999 124.81 82.917 124.417 82.917C124.083 82.917 123.796 82.9902 123.556 83.1367C123.315 83.2832 123.119 83.4883 122.967 83.752C122.82 84.0156 122.709 84.3262 122.633 84.6836C122.562 85.0352 122.527 85.4219 122.527 85.8438V86.1953C122.527 86.5762 122.58 86.9277 122.686 87.25C122.797 87.5723 122.952 87.8506 123.151 88.085C123.356 88.3193 123.603 88.501 123.89 88.6299C124.183 88.7588 124.514 88.8232 124.883 88.8232C125.34 88.8232 125.765 88.7354 126.157 88.5596C126.556 88.3779 126.898 88.1055 127.186 87.7422L128.416 89.0781C128.217 89.3652 127.944 89.6406 127.599 89.9043C127.259 90.168 126.849 90.3848 126.368 90.5547C125.888 90.7188 125.34 90.8008 124.725 90.8008Z" fill="url(#paint0_linear_4_1128)"/>
<defs>
<linearGradient id="paint0_linear_4_1128" x1="0.5" y1="82.8125" x2="129.5" y2="82.8125" gradientUnits="userSpaceOnUse">
<stop stop-color="#FF3E80"/>
<stop offset="1" stop-color="#5B68DC"/>
</linearGradient>
</defs>
</svg>
