<svg width="129.000000" height="86.118164" viewBox="0 0 129 86.1182" fill="none" xmlns="http://www.w3.org/2000/svg" xmlns:xlink="http://www.w3.org/1999/xlink">
	<desc>
			Created with Pixso.
	</desc>
	<defs>
		<linearGradient x1="0.000000" y1="74.812500" x2="129.000000" y2="74.812500" id="paint_linear_5_95_0" gradientUnits="userSpaceOnUse">
			<stop stop-color="#FF3E80"/>
			<stop offset="1.000000" stop-color="#5B68DC"/>
		</linearGradient>
	</defs>
	<rect id="Component 1" rx="-0.500000" width="128.000000" height="83.000000" transform="translate(0.500000 0.500000)" fill="#FFFFFF" fill-opacity="0"/>
	<g style="mix-blend-mode:normal">
		<ellipse id="Ellipse 30" rx="11.458132" ry="13.531936" transform="matrix(0.292806 0.956172 0.999954 0.00962104 61.7285 15.2739)" stroke="#FFC300" stroke-opacity="1.000000" stroke-width="8.672430"/>
	</g>
	<g style="mix-blend-mode:normal">
		<ellipse id="Ellipse 31" rx="17.612438" ry="15.763126" transform="matrix(0.89257 -0.45091 -0.281001 -0.959708 65.4716 30.6678)" stroke="#00D4E6" stroke-opacity="1.000000" stroke-width="6.000000"/>
	</g>
	<g style="mix-blend-mode:normal">
		<ellipse id="Ellipse 32" rx="20.871351" ry="18.873859" transform="matrix(0.973599 0.228266 0.560435 -0.828198 55.5 25.8087)" stroke="#FF3E80" stroke-opacity="1.000000" stroke-width="6.000000"/>
	</g>
	<g style="mix-blend-mode:normal">
		<ellipse id="Ellipse 33" rx="11.015395" ry="9.361117" transform="matrix(0.973599 -0.228266 0.0125659 -0.999921 67.1437 23.4149)" stroke="#5B68DC" stroke-opacity="1.000000" stroke-width="6.000000"/>
	</g>
	<path id="Company Name" d="M11.18 78.03L8.56 78.03Q8.5 78.8 8.21 79.32Q8.08 79.56 7.9 79.75Q7.68 79.96 7.4 80.1Q6.86 80.37 6.03 80.37Q5.33 80.37 4.83 80.11Q4.71 80.05 4.61 79.97Q4.26 79.73 4.02 79.34Q3.71 78.82 3.56 78.07Q3.41 77.32 3.41 76.32L3.41 75.42Q3.41 74.4 3.57 73.64Q3.74 72.88 4.07 72.38Q4.35 71.96 4.74 71.72Q4.82 71.67 4.9 71.63Q5.39 71.38 6.05 71.38Q6.93 71.38 7.46 71.66Q7.72 71.8 7.91 71.99Q8.12 72.2 8.26 72.48Q8.52 73.02 8.56 73.79L11.2 73.79Q11.08 72.56 10.52 71.57Q10.49 71.52 10.46 71.47Q10.27 71.14 10.02 70.85Q9.5 70.26 8.75 69.87Q7.65 69.29 6.05 69.29Q4.85 69.29 3.87 69.72Q3.38 69.94 2.95 70.25Q2.54 70.56 2.19 70.95Q1.5 71.75 1.12 72.89Q0.75 74.03 0.75 75.43L0.75 76.32Q0.75 77.73 1.11 78.86Q1.47 80 2.16 80.8Q2.48 81.17 2.86 81.46Q3.3 81.8 3.83 82.03Q4.8 82.45 6.03 82.45Q7.61 82.45 8.72 81.89Q9.52 81.48 10.07 80.86Q10.29 80.61 10.47 80.32Q10.57 80.17 10.65 80.01Q11.12 79.12 11.18 78.03ZM92.48 82.27L92.48 69.48L89.85 69.48L89.85 78.06L84.7 69.48L82.07 69.48L82.07 82.27L84.7 82.27L84.7 73.69L89.85 82.27L92.48 82.27ZM12.35 77.43L12.35 77.61Q12.35 78.65 12.65 79.54Q12.92 80.34 13.42 80.96Q13.47 81.02 13.52 81.08Q13.68 81.26 13.86 81.41Q14.33 81.83 14.94 82.09Q15.78 82.45 16.86 82.45Q17.94 82.45 18.78 82.09Q19.41 81.82 19.88 81.38Q20.04 81.24 20.18 81.08Q20.27 80.98 20.34 80.88Q20.81 80.29 21.06 79.54Q21.36 78.65 21.36 77.61L21.36 77.43Q21.36 76.38 21.06 75.5Q20.78 74.67 20.26 74.05Q20.22 74.01 20.18 73.97Q20.06 73.83 19.93 73.71Q19.44 73.24 18.77 72.96Q17.92 72.59 16.84 72.59Q15.76 72.59 14.93 72.96Q14.3 73.23 13.82 73.66Q13.66 73.81 13.52 73.97Q13.52 73.97 13.51 73.98Q12.95 74.63 12.65 75.5Q12.35 76.38 12.35 77.43ZM25.45 75.53L25.45 82.27L22.91 82.27L22.91 72.76L25.29 72.76L25.38 73.85Q25.63 73.53 25.94 73.29Q26.21 73.08 26.51 72.93Q27.21 72.59 28.12 72.59Q28.75 72.59 29.28 72.78Q29.57 72.88 29.81 73.04Q30.01 73.18 30.19 73.37Q30.46 73.65 30.64 74.05Q30.71 73.96 30.77 73.87Q31.01 73.56 31.31 73.32Q31.59 73.09 31.93 72.93Q32.61 72.59 33.51 72.59Q34.19 72.59 34.76 72.79Q35.08 72.9 35.34 73.09Q35.54 73.23 35.71 73.41Q36.12 73.83 36.33 74.52Q36.55 75.21 36.55 76.2L36.55 82.27L34.01 82.27L34.01 76.2Q34.01 75.54 33.83 75.2Q33.72 74.95 33.53 74.82Q33.44 74.75 33.34 74.71Q33.02 74.57 32.58 74.57Q32.13 74.57 31.79 74.76Q31.63 74.83 31.51 74.94Q31.34 75.07 31.21 75.25Q31.08 75.43 30.99 75.65Q30.99 75.78 30.99 75.93L30.99 82.27L28.46 82.27L28.46 76.21Q28.46 75.56 28.29 75.21Q28.16 74.95 27.96 74.81Q27.88 74.75 27.79 74.71Q27.47 74.57 27.02 74.57Q26.53 74.57 26.16 74.78Q26.05 74.84 25.95 74.91Q25.73 75.09 25.56 75.34Q25.5 75.43 25.45 75.53ZM47.06 77.6L47.06 77.41Q47.06 76.33 46.81 75.44Q46.58 74.56 46.1 73.91Q45.82 73.53 45.46 73.25Q45.22 73.07 44.94 72.93Q44.26 72.59 43.35 72.59Q42.49 72.59 41.85 72.94Q41.74 73 41.64 73.06Q41.26 73.32 40.95 73.7L40.86 72.76L38.51 72.76L38.51 85.93L41.04 85.93L41.04 81.45Q41.27 81.7 41.54 81.9Q41.69 82.01 41.86 82.1Q42.5 82.45 43.37 82.45Q44.27 82.45 44.95 82.09Q45.24 81.93 45.49 81.73Q45.84 81.45 46.11 81.07Q46.58 80.41 46.81 79.52Q47.06 78.63 47.06 77.6ZM41.04 79.48Q41.17 79.75 41.36 79.96Q41.48 80.08 41.61 80.17Q42.03 80.47 42.72 80.47Q43.22 80.47 43.56 80.25Q43.62 80.22 43.67 80.18Q43.94 79.96 44.12 79.63Q44.34 79.23 44.42 78.71Q44.52 78.19 44.52 77.6L44.52 77.41Q44.52 76.81 44.41 76.3Q44.32 75.78 44.1 75.39Q43.94 75.1 43.7 74.91Q43.62 74.84 43.54 74.79Q43.19 74.57 42.7 74.57Q42.18 74.57 41.81 74.74Q41.61 74.83 41.45 74.98Q41.32 75.09 41.22 75.22Q41.12 75.37 41.04 75.54L41.04 79.48ZM53.87 81.38Q53.73 81.54 53.57 81.68Q53.2 82.02 52.69 82.24Q52.17 82.45 51.46 82.45Q50.59 82.45 49.87 82.12Q49.84 82.1 49.81 82.09Q49.29 81.82 48.92 81.42Q48.77 81.26 48.65 81.08Q48.52 80.88 48.43 80.66Q48.23 80.17 48.23 79.6Q48.23 78.85 48.51 78.27Q48.6 78.09 48.72 77.92Q48.97 77.57 49.34 77.3Q49.89 76.89 50.72 76.69Q51.54 76.48 52.63 76.48L53.77 76.48L53.77 75.89Q53.77 75.43 53.62 75.11Q53.54 74.94 53.43 74.81Q53.31 74.68 53.15 74.59Q52.84 74.41 52.35 74.41Q51.93 74.41 51.62 74.56Q51.42 74.65 51.27 74.8Q51.2 74.88 51.15 74.97Q51.14 74.99 51.13 75Q50.98 75.26 50.98 75.59L48.45 75.59Q48.45 75.32 48.51 75.06Q48.58 74.74 48.73 74.44L48.73 74.44Q49.01 73.9 49.55 73.48Q50.08 73.06 50.82 72.82Q51.57 72.59 52.49 72.59Q53.6 72.59 54.46 72.96Q55.04 73.2 55.45 73.61Q55.65 73.82 55.81 74.06Q56.32 74.8 56.32 75.91L56.32 79.98Q56.32 80.76 56.41 81.26Q56.51 81.75 56.69 82.12L56.69 82.27L54.14 82.27Q53.96 81.91 53.87 81.38ZM53.77 79.58Q53.72 79.67 53.65 79.77Q53.42 80.1 53 80.33Q52.58 80.56 52.01 80.56Q51.63 80.56 51.35 80.42Q51.14 80.31 51 80.14Q50.96 80.08 50.92 80.01Q50.88 79.95 50.86 79.89Q50.77 79.67 50.77 79.42Q50.77 79.1 50.87 78.83Q50.9 78.76 50.94 78.69Q51.05 78.5 51.23 78.35Q51.46 78.14 51.83 78.03Q52.2 77.91 52.7 77.91L53.77 77.91L53.77 79.58ZM60.75 75.53L60.75 82.27L58.21 82.27L58.21 72.76L60.59 72.76L60.68 73.9Q60.7 73.87 60.73 73.83Q61.08 73.4 61.53 73.11Q61.71 73 61.9 72.91Q62.58 72.59 63.43 72.59Q64.09 72.59 64.65 72.78Q64.96 72.89 65.22 73.07Q65.42 73.21 65.6 73.4Q66 73.82 66.21 74.51Q66.43 75.21 66.43 76.21L66.43 82.27L63.88 82.27L63.88 76.2Q63.88 75.57 63.71 75.21Q63.6 75 63.43 74.86Q63.32 74.78 63.19 74.72Q62.85 74.57 62.36 74.57Q61.85 74.57 61.47 74.78Q61.35 74.84 61.24 74.93Q61.02 75.1 60.86 75.34Q60.8 75.43 60.75 75.53ZM99.85 81.38Q99.72 81.54 99.56 81.68Q99.19 82.02 98.67 82.24Q98.15 82.45 97.44 82.45Q96.57 82.45 95.86 82.12Q95.83 82.1 95.8 82.09Q95.27 81.82 94.9 81.42Q94.76 81.26 94.64 81.08Q94.51 80.88 94.42 80.66Q94.21 80.17 94.21 79.6Q94.21 78.85 94.5 78.27Q94.58 78.09 94.7 77.92Q94.95 77.57 95.32 77.3Q95.87 76.89 96.7 76.69Q97.53 76.48 98.62 76.48L99.75 76.48L99.75 75.89Q99.75 75.43 99.6 75.11Q99.53 74.94 99.41 74.81Q99.29 74.68 99.14 74.59Q98.83 74.41 98.34 74.41Q97.91 74.41 97.61 74.56Q97.4 74.65 97.26 74.8Q97.19 74.88 97.13 74.97Q97.12 74.99 97.11 75Q96.96 75.26 96.96 75.59L94.43 75.59Q94.43 75.32 94.49 75.06Q94.56 74.74 94.71 74.44L94.72 74.44Q95 73.9 95.53 73.48Q96.07 73.06 96.81 72.82Q97.55 72.59 98.48 72.59Q99.58 72.59 100.45 72.96Q101.02 73.2 101.43 73.61Q101.64 73.82 101.8 74.06Q102.3 74.8 102.3 75.91L102.3 79.98Q102.3 80.76 102.4 81.26Q102.49 81.75 102.68 82.12L102.68 82.27L100.12 82.27Q99.95 81.91 99.85 81.38ZM99.75 79.58Q99.7 79.67 99.64 79.77Q99.41 80.1 98.99 80.33Q98.56 80.56 97.99 80.56Q97.62 80.56 97.33 80.42Q97.12 80.31 96.99 80.14Q96.94 80.08 96.9 80.01Q96.87 79.95 96.84 79.89Q96.75 79.67 96.75 79.42Q96.75 79.1 96.86 78.83Q96.89 78.76 96.93 78.69Q97.03 78.5 97.21 78.35Q97.45 78.14 97.82 78.03Q98.19 77.91 98.69 77.91L99.75 77.91L99.75 79.58ZM106.78 75.53L106.78 82.27L104.24 82.27L104.24 72.76L106.62 72.76L106.71 73.85Q106.96 73.53 107.28 73.29Q107.54 73.08 107.85 72.93Q108.54 72.59 109.45 72.59Q110.09 72.59 110.61 72.78Q110.9 72.88 111.14 73.04Q111.35 73.18 111.52 73.37Q111.79 73.65 111.98 74.05Q112.04 73.96 112.11 73.87Q112.35 73.56 112.64 73.32Q112.93 73.09 113.26 72.93Q113.95 72.59 114.84 72.59Q115.53 72.59 116.09 72.79Q116.41 72.9 116.68 73.09Q116.88 73.23 117.05 73.41Q117.45 73.83 117.66 74.52Q117.88 75.21 117.88 76.2L117.88 82.27L115.34 82.27L115.34 76.2Q115.34 75.54 115.17 75.2Q115.05 74.95 114.86 74.82Q114.77 74.75 114.68 74.71Q114.36 74.57 113.92 74.57Q113.46 74.57 113.12 74.76Q112.97 74.83 112.84 74.94Q112.68 75.07 112.55 75.25Q112.42 75.43 112.32 75.65Q112.33 75.78 112.33 75.93L112.33 82.27L109.8 82.27L109.8 76.21Q109.8 75.56 109.62 75.21Q109.5 74.95 109.29 74.81Q109.21 74.75 109.12 74.71Q108.8 74.57 108.36 74.57Q107.86 74.57 107.49 74.78Q107.38 74.84 107.28 74.91Q107.06 75.09 106.9 75.34Q106.84 75.43 106.78 75.53ZM122.23 82.1Q123.11 82.45 124.22 82.45Q125.14 82.45 125.86 82.2Q126.58 81.95 127.09 81.55Q127.61 81.16 127.91 80.73L126.68 79.39Q126.36 79.8 125.94 80.05Q125.8 80.14 125.65 80.21Q125.56 80.25 125.46 80.28Q124.95 80.47 124.38 80.47Q123.82 80.47 123.39 80.28Q123.14 80.17 122.94 80.01Q122.78 79.89 122.65 79.73Q122.35 79.38 122.18 78.9Q122.09 78.61 122.05 78.3L128.12 78.3L128.12 77.25Q128.12 76.2 127.85 75.35Q127.58 74.49 127.04 73.87Q126.9 73.71 126.74 73.56Q126.3 73.17 125.73 72.92Q124.95 72.59 123.94 72.59Q122.9 72.59 122.08 72.95Q121.57 73.16 121.15 73.49Q120.89 73.7 120.67 73.96Q120.1 74.62 119.79 75.51Q119.48 76.41 119.48 77.49L119.48 77.84Q119.48 78.66 119.72 79.39Q119.76 79.51 119.81 79.64Q120.02 80.17 120.34 80.63Q120.52 80.88 120.74 81.1Q120.78 81.15 120.83 81.19Q121.42 81.76 122.23 82.1ZM122.08 76.61Q122.1 76.47 122.13 76.33Q122.24 75.79 122.46 75.4Q122.65 75.08 122.92 74.87Q122.98 74.82 123.05 74.78Q123.41 74.56 123.91 74.56Q124.5 74.56 124.88 74.81Q125.04 74.92 125.17 75.06Q125.34 75.24 125.44 75.48Q125.64 75.89 125.64 76.42L125.64 76.61L122.08 76.61ZM71.91 78.74L70.12 72.76L67.41 72.76L70.75 82.3L70.47 83.04Q70.35 83.41 70.16 83.63Q70.12 83.68 70.09 83.72Q69.91 83.89 69.65 83.99Q69.33 84.1 68.83 84.1Q68.73 84.1 68.63 84.09L68.43 84.09L68.43 85.95Q68.74 86.03 68.97 86.07Q69.2 86.11 69.56 86.11Q70.32 86.11 70.83 85.88Q71.36 85.64 71.71 85.26Q72.06 84.89 72.26 84.48Q72.47 84.07 72.59 83.71L76.42 72.76L73.7 72.76L71.91 78.74ZM14.88 77.61L14.88 77.43Q14.88 76.85 14.99 76.34Q15.09 75.82 15.32 75.43Q15.52 75.09 15.8 74.88Q15.86 74.83 15.93 74.79Q16.31 74.56 16.84 74.56Q17.38 74.56 17.76 74.79Q17.87 74.86 17.98 74.95Q18.21 75.15 18.36 75.43Q18.6 75.82 18.71 76.34Q18.82 76.85 18.82 77.43L18.82 77.61Q18.82 78.21 18.71 78.73Q18.6 79.25 18.37 79.64Q18.23 79.88 18.04 80.05Q17.92 80.16 17.77 80.25Q17.39 80.47 16.86 80.47Q16.32 80.47 15.94 80.25Q15.81 80.18 15.69 80.08Q15.48 79.9 15.32 79.64Q15.09 79.25 14.99 78.73Q14.88 78.21 14.88 77.61Z" fill="url(#paint_linear_5_95_0)" fill-opacity="1.000000" fill-rule="evenodd"/>
</svg>
